<?xml version="1.0" standalone="no"?>
<!DOCTYPE svg PUBLIC "-//W3C//DTD SVG 20010904//EN"
 "http://www.w3.org/TR/2001/REC-SVG-20010904/DTD/svg10.dtd">
<svg version="1.0" xmlns="http://www.w3.org/2000/svg"
 width="500.000000pt" height="499.000000pt" viewBox="0 0 500.000000 499.000000"
 preserveAspectRatio="xMidYMid meet">

<g transform="translate(0.000000,499.000000) scale(0.100000,-0.100000)"
fill="#000000" stroke="none">
<path d="M3094 3815 c-95 -17 -139 -32 -199 -66 -97 -54 -175 -161 -191 -259
l-7 -43 39 7 c21 5 39 9 40 9 0 1 6 20 12 43 36 126 154 211 329 235 143 20
278 -19 366 -105 95 -92 123 -215 73 -321 -60 -129 -257 -275 -418 -310 -61
-14 -65 -51 -9 -88 84 -56 148 -148 175 -253 20 -78 21 -237 2 -337 -14 -74
-62 -224 -77 -241 -4 -4 -33 3 -64 18 -32 14 -59 26 -60 26 -2 0 -8 -14 -14
-32 -9 -25 -8 -35 1 -44 20 -18 147 -66 166 -62 25 4 66 96 103 228 28 97 33
136 37 251 6 194 -25 301 -123 419 l-45 54 60 28 c148 67 284 190 339 308 22
47 26 69 26 150 0 87 -3 100 -30 150 -37 68 -115 146 -182 182 -97 53 -236 74
-349 53z"/>
<path d="M3232 3565 c-42 -35 -44 -85 -6 -120 35 -32 78 -32 109 0 48 47 23
123 -46 140 -19 5 -34 0 -57 -20z"/>
<path d="M2616 3354 c-40 -14 -93 -24 -122 -24 -73 0 -84 -17 -84 -135 0 -57
4 -95 12 -103 17 -17 94 -15 111 2 11 12 38 108 41 150 1 6 27 20 59 32 l57
22 0 -22 c0 -42 -50 -245 -85 -349 -137 -400 -433 -759 -738 -896 -63 -28 -68
-33 -65 -58 5 -44 41 -41 146 12 358 179 668 615 787 1106 32 131 43 253 25
274 -17 21 -63 18 -144 -11z"/>
<path d="M2245 3314 c-11 -3 -29 -7 -41 -9 -48 -10 -113 -80 -211 -227 -45
-68 -35 -72 123 -53 181 22 191 24 203 39 8 9 11 55 9 132 l-3 119 -30 2 c-16
0 -39 -1 -50 -3z"/>
<path d="M1930 3227 c-147 -64 -283 -150 -278 -175 5 -25 146 -53 185 -37 30
13 183 206 183 231 0 19 -5 18 -90 -19z"/>
<path d="M2384 2996 c-111 -13 -135 -24 -229 -110 -55 -50 -53 -59 14 -71 93
-17 107 -24 140 -75 18 -27 39 -50 47 -50 16 0 42 38 85 129 61 129 79 195 51
190 -4 -1 -52 -7 -108 -13z"/>
<path d="M1540 2966 c-34 -19 -72 -73 -72 -102 0 -28 46 -89 107 -139 l46 -38
142 39 142 39 88 73 c48 40 87 77 87 80 0 4 -66 7 -148 8 -130 0 -157 4 -235
27 -98 30 -121 32 -157 13z"/>
<path d="M1388 2773 c-27 -30 -75 -135 -98 -212 -17 -60 -20 -79 -11 -99 10
-22 16 -24 49 -18 20 3 66 6 102 6 l66 0 32 63 c36 70 39 101 14 138 -17 25
-128 139 -135 139 -2 0 -11 -8 -19 -17z"/>
<path d="M2900 2761 c-8 -15 -3 -29 26 -71 56 -81 67 -121 67 -245 1 -183 -50
-339 -156 -480 -47 -62 -134 -152 -140 -144 -10 14 -38 128 -52 209 -29 184
-14 405 36 518 27 62 7 96 -45 76 -22 -9 -75 -183 -83 -272 l-6 -73 -62 -55
c-88 -78 -281 -222 -361 -270 -47 -27 -70 -48 -72 -62 -6 -38 24 -36 90 5 35
21 93 54 130 73 37 19 114 72 170 117 l103 82 11 -82 c20 -140 70 -329 97
-364 21 -28 51 -11 141 80 198 198 277 381 277 637 0 138 -28 232 -92 305 -35
39 -63 45 -79 16z"/>
<path d="M1978 2743 c-21 -22 -21 -22 -2 -85 24 -83 25 -263 2 -326 -14 -37
-14 -44 -2 -49 8 -3 25 2 38 10 55 36 167 141 220 205 47 58 56 75 56 109 0
50 -33 102 -80 125 -19 9 -74 20 -123 25 -83 9 -88 8 -109 -14z"/>
<path d="M1790 2656 c-47 -12 -95 -28 -106 -34 -40 -22 -121 -192 -111 -235
15 -64 61 -205 75 -229 9 -16 25 -28 35 -28 33 0 167 61 185 85 31 39 66 231
59 317 -8 90 -24 148 -40 148 -7 -1 -50 -11 -97 -24z"/>
<path d="M1280 2371 c-33 -9 -37 -33 -39 -209 -1 -197 14 -226 146 -261 42
-11 42 -12 25 -33 -47 -61 -84 -87 -175 -127 -54 -24 -100 -41 -102 -39 -2 2
19 30 46 63 56 68 66 90 49 110 -24 29 -48 15 -113 -63 -56 -68 -108 -113
-214 -187 -28 -19 -30 -51 -4 -64 29 -16 255 55 384 120 58 30 166 115 200
157 24 31 37 38 78 43 69 9 79 15 79 44 0 14 -1 25 -2 26 -2 0 -44 3 -95 5
-61 3 -114 12 -155 27 -54 19 -63 26 -66 49 -4 30 -2 30 122 44 117 12 136 33
107 115 -10 30 -30 75 -43 100 -14 25 -27 56 -31 68 -5 19 -11 21 -89 20 -45
-1 -94 -4 -108 -8z"/>
<path d="M1883 1847 c-12 -7 -40 -41 -64 -76 -54 -82 -150 -160 -264 -216 -84
-41 -263 -100 -273 -90 -5 4 77 82 181 170 37 31 67 61 67 65 0 4 -6 13 -14
19 -17 15 -28 10 -136 -62 -81 -54 -203 -166 -225 -208 -21 -40 3 -69 58 -69
109 1 320 68 429 137 21 12 39 23 42 23 2 0 7 -12 11 -27 11 -47 55 -113 88
-134 50 -30 75 -25 127 29 107 111 326 430 307 448 -2 3 -26 -10 -53 -28 -31
-21 -70 -64 -109 -119 -89 -127 -207 -270 -219 -266 -17 5 -50 59 -64 103
l-13 39 61 64 c58 60 136 191 123 205 -10 9 -36 7 -60 -7z"/>
</g>
</svg>
